<svg width="223" height="168" viewBox="0 0 223 168" fill="none" xmlns="http://www.w3.org/2000/svg">
<g clip-path="url(#clip0)" filter="url(#filter0_d)">
<path d="M4 134.445H6.33953V135.061C7.78781 133.648 9.51461 132.949 11.5338 132.949C13.6227 132.949 15.4052 133.676 16.8674 135.159C17.2573 135.55 17.5916 135.984 17.8979 136.459C18.2043 136.012 18.5664 135.578 18.9841 135.159C20.4463 133.69 22.2288 132.949 24.3177 132.949C26.4066 132.949 28.1891 133.676 29.6513 135.159C31.0439 136.585 31.768 138.292 31.8515 140.278V160H29.512V140.278H29.5399C29.4842 138.921 28.9689 137.774 28.022 136.837C26.9915 135.816 25.7521 135.312 24.3316 135.312C22.8833 135.312 21.644 135.83 20.6274 136.837C19.5969 137.858 19.0955 139.131 19.0955 140.67V160H16.7421V140.278H16.7699C16.7003 138.921 16.1711 137.774 15.2102 136.837C14.1797 135.816 12.9403 135.312 11.5199 135.312C10.0995 135.312 8.87402 135.83 7.85744 136.837C6.95226 137.718 6.45094 138.795 6.3256 140.082V160H4V134.445Z" fill="#3B4394"/>
<path d="M51.0552 131.424C54.9962 131.424 58.3523 132.823 61.1235 135.606C63.8808 138.39 65.2734 141.761 65.2734 145.733C65.2734 149.649 63.8948 153.02 61.1235 155.818C58.3523 158.615 54.9962 160.014 51.0552 160.014C47.142 160.014 43.7999 158.615 41.0147 155.818C38.2296 153.02 36.837 149.663 36.837 145.733C36.837 141.775 38.2296 138.39 41.0147 135.606C43.7999 132.809 47.156 131.424 51.0552 131.424ZM42.7554 137.369C40.4577 139.677 39.3158 142.474 39.3158 145.733C39.3158 148.992 40.4716 151.762 42.7554 154.055C45.0532 156.349 47.8244 157.496 51.0552 157.496C54.2999 157.496 57.0711 156.349 59.355 154.055C61.6527 151.762 62.7946 148.978 62.7946 145.733C62.7946 142.474 61.6388 139.691 59.355 137.369C57.0572 135.061 54.286 133.9 51.0552 133.9C47.8105 133.886 45.0393 135.047 42.7554 137.369Z" fill="#3B4394"/>
<path d="M92.2476 153.104L94.7124 154.014C94.2668 154.629 93.7516 155.216 93.1945 155.776C90.4233 158.587 87.0672 159.986 83.1123 159.986C79.2131 159.986 75.8569 158.587 73.0718 155.79C70.2866 152.992 68.894 149.622 68.894 145.677C68.894 141.733 70.2866 138.362 73.0718 135.578C75.8569 132.795 79.1991 131.396 83.1123 131.396C87.0672 131.396 90.4233 132.795 93.1945 135.578C93.7655 136.152 94.2668 136.739 94.7124 137.341L92.2476 138.25C91.9969 137.942 91.7184 137.62 91.426 137.313C89.1282 135.019 86.343 133.872 83.0983 133.872C79.8815 133.872 77.1242 135.033 74.8264 137.327C72.5287 139.635 71.3868 142.418 71.3868 145.663C71.3868 148.908 72.5426 151.706 74.8264 154.014C77.1242 156.321 79.8815 157.468 83.0983 157.468C86.343 157.468 89.1143 156.307 91.426 154C91.7184 153.734 91.9969 153.426 92.2476 153.104Z" fill="#3B4394"/>
<path d="M98.9877 118.388H101.327V135.774C103.277 133.872 105.644 132.921 108.415 132.921C111.409 132.921 113.833 133.872 115.726 135.76C117.606 137.648 118.581 140.026 118.637 142.894V159.986H116.297V143.131C116.297 140.949 115.518 139.103 113.958 137.564C112.398 136.04 110.546 135.271 108.429 135.271C106.285 135.271 104.433 136.026 102.887 137.536C102.191 138.222 101.661 138.935 101.327 139.691V160H98.9877V118.388V118.388Z" fill="#3B4394"/>
<path d="M127.689 126.095C128.148 126.542 128.385 127.088 128.385 127.717C128.385 128.389 128.148 128.948 127.689 129.396C127.229 129.843 126.686 130.067 126.059 130.067C125.419 130.067 124.862 129.843 124.402 129.396C123.943 128.948 123.706 128.389 123.706 127.717C123.706 127.088 123.943 126.556 124.402 126.095C124.862 125.647 125.405 125.423 126.059 125.423C126.686 125.423 127.229 125.647 127.689 126.095ZM127.201 134.445V159.986H124.89V134.445H127.201Z" fill="#3B4394"/>
<path d="M136.253 118.388V160H133.914V118.388H136.253Z" fill="#3B4394"/>
<path d="M169.745 159.259H167.405V154.055C166.959 154.657 166.472 155.244 165.943 155.79C163.172 158.601 159.802 160 155.861 160C151.947 160 148.605 158.601 145.82 155.804C143.035 153.006 141.642 149.649 141.642 145.719C141.642 141.761 143.035 138.376 145.82 135.592C148.605 132.809 151.947 131.41 155.861 131.41C159.802 131.41 163.172 132.809 165.943 135.592C166.472 136.138 166.959 136.725 167.405 137.327V133.718H169.745V159.259ZM167.405 148.027V143.411C166.973 141.117 165.901 139.103 164.174 137.383C161.863 135.075 159.091 133.914 155.861 133.914C152.616 133.914 149.845 135.075 147.561 137.383C145.263 139.69 144.121 142.488 144.121 145.747C144.121 149.006 145.277 151.775 147.561 154.069C149.859 156.363 152.616 157.51 155.861 157.51C159.105 157.51 161.876 156.349 164.174 154.041C165.901 152.293 166.973 150.293 167.405 148.027Z" fill="#3B4394"/>
<path d="M177.501 156.028C177.961 156.475 178.184 157.035 178.184 157.678C178.184 158.321 177.961 158.881 177.501 159.329C177.042 159.776 176.499 160.014 175.872 160.014C175.231 160.014 174.674 159.79 174.215 159.329C173.755 158.881 173.532 158.335 173.532 157.678C173.532 157.021 173.769 156.475 174.215 156.028C174.674 155.58 175.231 155.356 175.872 155.356C176.499 155.342 177.042 155.566 177.501 156.028Z" fill="#E85D04"/>
<path d="M185.467 126.095C185.926 126.542 186.149 127.088 186.149 127.717C186.149 128.389 185.926 128.948 185.467 129.396C185.007 129.843 184.464 130.067 183.837 130.067C183.197 130.067 182.64 129.843 182.18 129.396C181.721 128.948 181.484 128.389 181.484 127.717C181.484 127.088 181.721 126.556 182.18 126.095C182.64 125.647 183.197 125.423 183.837 125.423C184.464 125.423 185.007 125.647 185.467 126.095ZM184.979 134.445V159.986H182.668V134.445H184.979Z" fill="#3B4394"/>
<path d="M204.796 131.424C208.737 131.424 212.093 132.823 214.864 135.606C217.621 138.39 219.014 141.761 219.014 145.733C219.014 149.649 217.635 153.02 214.864 155.818C212.093 158.615 208.751 160.014 204.796 160.014C200.897 160.014 197.54 158.615 194.755 155.818C191.97 153.02 190.578 149.663 190.578 145.733C190.578 141.775 191.97 138.39 194.755 135.606C197.54 132.809 200.883 131.424 204.796 131.424ZM196.482 137.369C194.184 139.677 193.042 142.474 193.042 145.733C193.042 148.992 194.198 151.762 196.482 154.055C198.78 156.349 201.551 157.496 204.782 157.496C208.026 157.496 210.798 156.349 213.082 154.055C215.379 151.762 216.521 148.978 216.521 145.733C216.521 142.474 215.379 139.691 213.082 137.369C210.784 135.061 208.013 133.9 204.782 133.9C201.551 133.886 198.78 135.047 196.482 137.369Z" fill="#3B4394"/>
<path d="M19.5551 126.095C20.0146 126.542 20.2514 127.088 20.2514 127.717C20.2514 128.389 20.0146 128.948 19.5551 129.396C19.0955 129.843 18.5524 130.067 17.9258 130.067C17.2852 130.067 16.7282 129.843 16.2686 129.396C15.8091 128.948 15.5862 128.389 15.5862 127.717C15.5862 127.088 15.823 126.556 16.2686 126.095C16.7282 125.647 17.2852 125.423 17.9258 125.423C18.5524 125.423 19.0955 125.647 19.5551 126.095Z" fill="#E85D04"/>
<path d="M147.087 102.331C147.046 102.946 147.282 103.575 147.77 104.037C148.633 104.848 149.998 104.806 150.805 103.939C155.805 98.568 158.799 91.5604 159.245 84.2171C159.69 76.9997 157.643 69.7962 153.479 63.9076C152.797 62.9425 151.46 62.7047 150.485 63.3901C149.524 64.0755 149.288 65.4182 149.97 66.3974C153.618 71.5586 155.331 77.6291 154.955 83.9513C154.565 90.3015 151.975 96.358 147.658 101.002C147.296 101.365 147.115 101.841 147.087 102.331Z" fill="#E85D04"/>
<path d="M75.9127 102.331C75.9544 102.946 75.7177 103.575 75.2303 104.037C74.3669 104.848 73.0022 104.806 72.1945 103.939C67.1951 98.568 64.2011 91.5604 63.7555 84.2171C63.3098 76.9997 65.3569 69.7962 69.5207 63.9076C70.2031 62.9425 71.54 62.7047 72.5148 63.3901C73.4757 64.0755 73.7124 65.4182 73.0161 66.3974C69.3675 71.5586 67.6547 77.6291 68.0307 83.9513C68.4206 90.3015 71.0108 96.358 75.3278 101.002C75.7038 101.365 75.8848 101.841 75.9127 102.331Z" fill="#3B4394"/>
<path d="M115.448 56.1168C116.604 57.2497 117.175 58.5925 117.175 60.1731C117.175 61.8375 116.604 63.2503 115.448 64.3692C114.292 65.5022 112.941 66.0617 111.382 66.0617C109.766 66.0617 108.388 65.5022 107.232 64.3692C106.076 63.2363 105.505 61.8375 105.505 60.1731C105.505 58.5925 106.076 57.2497 107.232 56.1168C108.388 54.9838 109.766 54.4243 111.382 54.4243C112.941 54.4243 114.306 54.9978 115.448 56.1168Z" fill="url(#paint0_linear)"/>
<path d="M92.7211 11.0079C92.1083 11.0079 91.4956 10.7422 91.0639 10.2247C90.3119 9.3015 90.4512 7.94474 91.3564 7.18942C97.0241 2.51769 104.182 -0.0279905 111.507 -1.60159e-05C118.707 0.0279585 125.739 2.54566 131.309 7.09151C132.229 7.84682 132.368 9.20359 131.63 10.1267C130.878 11.0499 129.527 11.1898 128.608 10.4345C123.72 6.4481 117.801 4.33603 111.493 4.30805C105.157 4.28008 98.9738 6.49006 94.0858 10.5184C93.682 10.8401 93.1946 11.0079 92.7211 11.0079Z" fill="url(#paint1_linear)"/>
<path d="M151.279 24.9392C140.097 15.8894 126.018 10.896 111.618 10.896C96.9545 10.896 82.6667 16.0433 71.3868 25.4008C70.4677 26.1561 70.3424 27.5128 71.0944 28.436C71.5122 28.9535 72.1249 29.2193 72.7516 29.2193C72.8769 29.2193 73.0162 29.2053 73.1415 29.1773C73.4896 35.3177 74.6176 41.1504 76.414 46.4795C76.3583 62.9984 76.3026 79.4894 76.233 96.0223C76.233 101.925 81.3159 107.086 87.109 107.086C103.736 107.086 120.364 107.086 137.005 107.086C142.52 107.086 146.697 102.093 146.697 95.9943C146.697 79.6153 146.878 63.3062 146.878 46.9131C146.878 46.9131 146.906 46.8152 146.878 46.9131C148.786 41.0944 149.97 35.2338 150.29 28.7997C150.792 28.7157 151.251 28.436 151.599 28.0024C152.351 27.0652 152.198 25.6805 151.279 24.9392ZM142.617 96.0363C142.617 99.7709 140.152 102.652 137.005 102.652C120.378 102.652 103.75 102.652 87.109 102.652C83.7251 102.652 80.5221 99.4352 80.5221 95.9804C80.5639 82.6365 80.6196 69.3487 80.6614 56.0048C87.7078 68.5933 99.0991 76.7619 111.758 76.7619C124.221 76.692 135.39 68.6913 142.617 56.1727C142.617 69.4606 142.617 82.7484 142.617 96.0363ZM111.702 72.3699C92.9718 72.314 77.7231 51.6548 77.3192 26.268C87.2761 19.1205 99.308 15.2041 111.604 15.2041C123.971 15.2041 136.086 19.1625 146.071 26.3799C145.653 52.3961 130.404 72.3 111.702 72.3699Z" fill="url(#paint2_linear)"/>
</g>
<defs>
<filter id="filter0_d" x="0" y="0" width="223" height="168" filterUnits="userSpaceOnUse" color-interpolation-filters="sRGB">
<feFlood flood-opacity="0" result="BackgroundImageFix"/>
<feColorMatrix in="SourceAlpha" type="matrix" values="0 0 0 0 0 0 0 0 0 0 0 0 0 0 0 0 0 0 127 0"/>
<feOffset dy="4"/>
<feGaussianBlur stdDeviation="2"/>
<feColorMatrix type="matrix" values="0 0 0 0 0 0 0 0 0 0 0 0 0 0 0 0 0 0 0.25 0"/>
<feBlend mode="normal" in2="BackgroundImageFix" result="effect1_dropShadow"/>
<feBlend mode="normal" in="SourceGraphic" in2="effect1_dropShadow" result="shape"/>
</filter>
<linearGradient id="paint0_linear" x1="105.508" y1="60.2511" x2="117.178" y2="60.2511" gradientUnits="userSpaceOnUse">
<stop stop-color="#3B4394"/>
<stop offset="0.1633" stop-color="#614394"/>
<stop offset="0.1931" stop-color="#6E428B"/>
<stop offset="0.3265" stop-color="#A53F66"/>
<stop offset="0.4949" stop-color="#BF4B4B"/>
<stop offset="0.6735" stop-color="#E55151"/>
<stop offset="0.8265" stop-color="#E56829"/>
<stop offset="1" stop-color="#E85D04"/>
</linearGradient>
<linearGradient id="paint1_linear" x1="90.5803" y1="5.50144" x2="132.105" y2="5.50144" gradientUnits="userSpaceOnUse">
<stop stop-color="#3B4394"/>
<stop offset="0.1071" stop-color="#3B4394"/>
<stop offset="0.1878" stop-color="#6E417E"/>
<stop offset="0.2806" stop-color="#A53F66"/>
<stop offset="0.4694" stop-color="#BF4B4B"/>
<stop offset="0.648" stop-color="#E55151"/>
<stop offset="0.8265" stop-color="#E56829"/>
<stop offset="1" stop-color="#E85D04"/>
</linearGradient>
<linearGradient id="paint2_linear" x1="70.6059" y1="58.9938" x2="152.08" y2="58.9938" gradientUnits="userSpaceOnUse">
<stop stop-color="#3B4394"/>
<stop offset="0.1071" stop-color="#3B4394"/>
<stop offset="0.1878" stop-color="#6E417E"/>
<stop offset="0.2806" stop-color="#A53F66"/>
<stop offset="0.4694" stop-color="#BF4B4B"/>
<stop offset="0.648" stop-color="#E55151"/>
<stop offset="0.8265" stop-color="#E56829"/>
<stop offset="1" stop-color="#E85D04"/>
</linearGradient>
<clipPath id="clip0">
<rect width="215" height="160" fill="white" transform="translate(4)"/>
</clipPath>
</defs>
</svg>
