<?xml version="1.0" encoding="utf-8"?>
<svg viewBox="63.695 0 95.609 107.086" width="95.609" height="107.086" xmlns="http://www.w3.org/2000/svg">
  <defs>
    <linearGradient id="paint0_linear" x1="105.508" y1="60.2511" x2="117.178" y2="60.2511" gradientUnits="userSpaceOnUse">
      <stop stop-color="#3B4394"/>
      <stop offset="0.1633" stop-color="#614394"/>
      <stop offset="0.1931" stop-color="#6E428B"/>
      <stop offset="0.3265" stop-color="#A53F66"/>
      <stop offset="0.4949" stop-color="#BF4B4B"/>
      <stop offset="0.6735" stop-color="#E55151"/>
      <stop offset="0.8265" stop-color="#E56829"/>
      <stop offset="1" stop-color="#E85D04"/>
    </linearGradient>
    <linearGradient id="paint1_linear" x1="90.5803" y1="5.50144" x2="132.105" y2="5.50144" gradientUnits="userSpaceOnUse">
      <stop stop-color="#3B4394"/>
      <stop offset="0.1071" stop-color="#3B4394"/>
      <stop offset="0.1878" stop-color="#6E417E"/>
      <stop offset="0.2806" stop-color="#A53F66"/>
      <stop offset="0.4694" stop-color="#BF4B4B"/>
      <stop offset="0.648" stop-color="#E55151"/>
      <stop offset="0.8265" stop-color="#E56829"/>
      <stop offset="1" stop-color="#E85D04"/>
    </linearGradient>
    <linearGradient id="paint2_linear" x1="70.6059" y1="58.9938" x2="152.08" y2="58.9938" gradientUnits="userSpaceOnUse">
      <stop stop-color="#3B4394"/>
      <stop offset="0.1071" stop-color="#3B4394"/>
      <stop offset="0.1878" stop-color="#6E417E"/>
      <stop offset="0.2806" stop-color="#A53F66"/>
      <stop offset="0.4694" stop-color="#BF4B4B"/>
      <stop offset="0.648" stop-color="#E55151"/>
      <stop offset="0.8265" stop-color="#E56829"/>
      <stop offset="1" stop-color="#E85D04"/>
    </linearGradient>
  </defs>
  <path d="M147.087 102.331C147.046 102.946 147.282 103.575 147.77 104.037C148.633 104.848 149.998 104.806 150.805 103.939C155.805 98.568 158.799 91.5604 159.245 84.2171C159.69 76.9997 157.643 69.7962 153.479 63.9076C152.797 62.9425 151.46 62.7047 150.485 63.3901C149.524 64.0755 149.288 65.4182 149.97 66.3974C153.618 71.5586 155.331 77.6291 154.955 83.9513C154.565 90.3015 151.975 96.358 147.658 101.002C147.296 101.365 147.115 101.841 147.087 102.331Z" fill="#E85D04"/>
  <path d="M75.9127 102.331C75.9544 102.946 75.7177 103.575 75.2303 104.037C74.3669 104.848 73.0022 104.806 72.1945 103.939C67.1951 98.568 64.2011 91.5604 63.7555 84.2171C63.3098 76.9997 65.3569 69.7962 69.5207 63.9076C70.2031 62.9425 71.54 62.7047 72.5148 63.3901C73.4757 64.0755 73.7124 65.4182 73.0161 66.3974C69.3675 71.5586 67.6547 77.6291 68.0307 83.9513C68.4206 90.3015 71.0108 96.358 75.3278 101.002C75.7038 101.365 75.8848 101.841 75.9127 102.331Z" fill="#3B4394"/>
  <path d="M115.448 56.1168C116.604 57.2497 117.175 58.5925 117.175 60.1731C117.175 61.8375 116.604 63.2503 115.448 64.3692C114.292 65.5022 112.941 66.0617 111.382 66.0617C109.766 66.0617 108.388 65.5022 107.232 64.3692C106.076 63.2363 105.505 61.8375 105.505 60.1731C105.505 58.5925 106.076 57.2497 107.232 56.1168C108.388 54.9838 109.766 54.4243 111.382 54.4243C112.941 54.4243 114.306 54.9978 115.448 56.1168Z" fill="url(#paint0_linear)"/>
  <path d="M92.7211 11.0079C92.1083 11.0079 91.4956 10.7422 91.0639 10.2247C90.3119 9.3015 90.4512 7.94474 91.3564 7.18942C97.0241 2.51769 104.182 -0.0279905 111.507 -1.60159e-05C118.707 0.0279585 125.739 2.54566 131.309 7.09151C132.229 7.84682 132.368 9.20359 131.63 10.1267C130.878 11.0499 129.527 11.1898 128.608 10.4345C123.72 6.4481 117.801 4.33603 111.493 4.30805C105.157 4.28008 98.9738 6.49006 94.0858 10.5184C93.682 10.8401 93.1946 11.0079 92.7211 11.0079Z" fill="url(#paint1_linear)"/>
  <path d="M151.279 24.9392C140.097 15.8894 126.018 10.896 111.618 10.896C96.9545 10.896 82.6667 16.0433 71.3868 25.4008C70.4677 26.1561 70.3424 27.5128 71.0944 28.436C71.5122 28.9535 72.1249 29.2193 72.7516 29.2193C72.8769 29.2193 73.0162 29.2053 73.1415 29.1773C73.4896 35.3177 74.6176 41.1504 76.414 46.4795C76.3583 62.9984 76.3026 79.4894 76.233 96.0223C76.233 101.925 81.3159 107.086 87.109 107.086C103.736 107.086 120.364 107.086 137.005 107.086C142.52 107.086 146.697 102.093 146.697 95.9943C146.697 79.6153 146.878 63.3062 146.878 46.9131C146.878 46.9131 146.906 46.8152 146.878 46.9131C148.786 41.0944 149.97 35.2338 150.29 28.7997C150.792 28.7157 151.251 28.436 151.599 28.0024C152.351 27.0652 152.198 25.6805 151.279 24.9392ZM142.617 96.0363C142.617 99.7709 140.152 102.652 137.005 102.652C120.378 102.652 103.75 102.652 87.109 102.652C83.7251 102.652 80.5221 99.4352 80.5221 95.9804C80.5639 82.6365 80.6196 69.3487 80.6614 56.0048C87.7078 68.5933 99.0991 76.7619 111.758 76.7619C124.221 76.692 135.39 68.6913 142.617 56.1727C142.617 69.4606 142.617 82.7484 142.617 96.0363ZM111.702 72.3699C92.9718 72.314 77.7231 51.6548 77.3192 26.268C87.2761 19.1205 99.308 15.2041 111.604 15.2041C123.971 15.2041 136.086 19.1625 146.071 26.3799C145.653 52.3961 130.404 72.3 111.702 72.3699Z" fill="url(#paint2_linear)"/>
</svg>